HIERARCHY
ROOT Hips
{
  OFFSET -0.000319 35.4094 5.8e-005
  CHANNELS 6 Xposition Yposition Zposition Zrotation Xrotation Yrotation
  JOINT Chest
  {
    OFFSET 0 4.52 0
    CHANNELS 3 Zrotation Xrotation Yrotation
    JOINT Neck
    {
      OFFSET 0 16.97 0
      CHANNELS 3 Zrotation Xrotation Yrotation
      JOINT Head
      {
        OFFSET 0 4.95 0
        CHANNELS 3 Zrotation Xrotation Yrotation
        End Site
        {
          OFFSET 0 4.02 0
        }
      }
    }
    JOINT LeftCollar
    {
      OFFSET 1.02 14.77 1.7
      CHANNELS 3 Zrotation Xrotation Yrotation
      JOINT LeftUpArm
      {
        OFFSET 5.68 0 0
        CHANNELS 3 Zrotation Xrotation Yrotation
        JOINT LeftLowArm
        {
          OFFSET 0 -12.23 0
          CHANNELS 3 Zrotation Xrotation Yrotation
          JOINT LeftHand
          {
            OFFSET 0 -9.99 0
            CHANNELS 3 Zrotation Xrotation Yrotation
            End Site
            {
              OFFSET 0 -7.27 0
            }
          }
        }
      }
    }
    JOINT RightCollar
    {
      OFFSET -1.02 14.77 1.7
      CHANNELS 3 Zrotation Xrotation Yrotation
      JOINT RightUpArm
      {
        OFFSET -5.62 0 0
        CHANNELS 3 Zrotation Xrotation Yrotation
        JOINT RightLowArm
        {
          OFFSET 0 -12.14 0
          CHANNELS 3 Zrotation Xrotation Yrotation
          JOINT RightHand
          {
            OFFSET 0 -10.16 0
            CHANNELS 3 Zrotation Xrotation Yrotation
            End Site
            {
              OFFSET 0 -7.21 0
            }
          }
        }
      }
    }
  }
  JOINT LeftUpLeg
  {
    OFFSET 3.39 0 0
    CHANNELS 3 Zrotation Xrotation Yrotation
    JOINT LeftLowLeg
    {
      OFFSET 0 -16.61 0
      CHANNELS 3 Zrotation Xrotation Yrotation
      JOINT LeftFoot
      {
        OFFSET 0 -16.51 0
        CHANNELS 3 Zrotation Xrotation Yrotation
        End Site
        {
          OFFSET 0 -3.48 0
        }
      }
    }
  }
  JOINT RightUpLeg
  {
    OFFSET -3.39 0 0
    CHANNELS 3 Zrotation Xrotation Yrotation
    JOINT RightLowLeg
    {
      OFFSET 0 -16.81 0
      CHANNELS 3 Zrotation Xrotation Yrotation
      JOINT RightFoot
      {
        OFFSET 0 -15.92 0
        CHANNELS 3 Zrotation Xrotation Yrotation
        End Site
        {
          OFFSET 0 -3.58 0
        }
      }
    }
  }
}
MOTION
Frames:	26
Frame Time:	0.0333333
-0.000319 35.4094 5.8e-005 -1.22334 -13.3943 -14.4024 1.91137 10.2269 21.3323 -4.02379 43.4136 0 0.694406 -42.3597 -2.65131 -14.1528 0 2.457 28.5813 30.6997 -24.0012 4.49731e-007 -29.7558 -21.5006 7.62423 8.91213 0 0.765355 0 2.35731 -22.674 -7.43174 1.27112 -7.13795e-007 -55.1785 26.9802 -1.11543 -12.7217 -20.6565 -1.0957 -10.88 -0.206825 1.29465 24.4637 13.3962 1.52437 -4.54158 -0.487003 -4.68916 19.1943 1.54475 -15.2596 48.6052 15.2843 0 12.3636 0 
0.070018 35.6968 2.43925 -0.993682 -13.5662 -12.0569 1.70208 9.78969 18.5666 -2.51033 43.134 0 -0.583455 -42.0456 -3.27889 -13.8 0 1.42413 27.8044 27.0831 -25.127 -3.17181e-007 -29.7983 -19.1821 5.20079 12.2557 0 2.37532 0 1.18196 -21.7267 -4.31308 2.41834 -6.48794e-007 -52.9701 28.1672 -0.473542 -11.5811 -20.5641 -2.53595 -7.46964 -0.329915 1.65586 25.3302 11.4689 1.52987 -6.6438 -0.430706 -2.82603 13.5448 0.662321 -16.0777 54.9215 12.7498 0 14.9795 0 
0.059812 36.1437 4.70226 -1.02794 -13.3509 -9.25473 1.80808 9.22822 15.2711 -0.984047 42.8368 0 -1.87767 -41.6547 -3.98907 -13.2232 0 0.252369 27.1006 22.0176 -27.1067 -3.37837e-008 -29.6686 -16.5243 3.57611 16.7371 0 4.13206 0 -0.229222 -20.7065 -1.42129 2.81943 5.47897e-008 -49.3551 30.8538 -0.0336529 -10.5059 -20.4856 -3.23611 -3.42144 -0.193349 2.4317 24.1857 8.77983 1.53667 -8.5466 -0.379328 -0.911249 7.32504 0.116155 -13.9595 59.5124 7.0737 0 11.6361 0 
0.017706 36.6299 6.86878 -1.24524 -12.8336 -6.02423 2.21404 8.46703 11.7101 0.506364 42.5407 0 -3.18295 -41.2122 -4.75911 -12.2508 0 -1.25412 26.0061 16.0001 -27.9964 1.05029e-007 -30.068 -16.8612 3.79563 20.2998 0 5.47918 0 -1.80625 -19.258 1.89629 1.53586 -1.48636e-006 -45.0829 36.2831 0.175781 -9.48438 -20.4219 -3.23243 1.02788 0.058068 3.32864 21.3637 5.61449 1.54164 -9.70377 -0.347826 0.489249 1.20773 -0.010306 -7.63697 60.867 -2.99203 0 6.58424 0 
-0.006488 37.0394 9.0324 -1.21899 -12.5654 -2.16595 2.45218 7.99686 7.77345 1.87749 42.2639 0 -4.43704 -40.7435 -5.52669 -10.7471 0 -3.00891 24.4554 9.54269 -27.0438 6.73514e-007 -31.7584 -21.1911 4.59684 23.1085 0 6.51754 0 -3.57137 -17.8046 5.68846 -0.834799 7.23319e-007 -40.778 42.195 0.187592 -8.66923 -20.3797 -2.9729 6.03365 0.312789 4.14499 17.6499 1.98594 1.54437 -10.2752 -0.332198 0.761601 -3.64988 0.048503 0.627316 58.2548 -15.0057 0 1.64438 0 
-0.041717 37.3228 11.148 -0.789018 -12.3439 1.92685 2.20878 7.86651 3.84271 3.05169 42.0249 0 -5.56525 -40.2739 -6.24823 -8.70199 0 -4.91931 22.9332 3.03134 -25.0261 2.83456e-007 -35.498 -25.6396 5.8397 25.0077 0 7.65263 0 -5.34574 -16.8577 9.64991 -2.79055 -9.54016e-007 -36.9068 44.2588 -0.0821119 -7.93852 -20.3491 -2.42689 10.8601 0.45749 4.53039 14.0961 -1.70107 1.54691 -10.7866 -0.31816 0.086665 -7.4398 0.011198 6.41176 52.1311 -24.0594 0 -2.4134 0 
-0.120713 37.4232 13.202 -0.313793 -11.8619 5.31669 1.76107 7.83943 0.748885 3.8762 41.8422 0 -6.38976 -39.8288 -6.80702 -6.44786 0 -6.94462 22.0373 -3.10394 -22.4206 -9.28298e-007 -40.2773 -26.5922 8.58014 24.9621 0 9.16431 0 -7.00404 -16.9078 13.6923 -2.96452 -1.07585e-007 -33.8677 41.512 -0.484058 -7.26298 -20.3244 -1.40572 15.1518 0.367485 4.32868 10.9295 -4.44817 1.55076 -11.507 -0.298311 -0.79631 -10.7474 -0.148504 7.68869 43.3994 -28.5033 0 -4.72178 0 
-0.234857 37.2854 15.25 0.14399 -11.0107 7.7482 1.16443 7.59566 -1.45869 4.65052 41.7343 0 -7.25799 -39.4334 -7.35737 -4.07674 0 -8.66668 21.8765 -8.69583 -19.8628 -8.96771e-007 -44.2282 -23.4422 13.5279 23.0365 0 10.7653 0 -8.41803 -17.5768 17.8734 -1.91724 7.36674e-007 -31.6177 37.2942 -0.86574 -6.67912 -20.2995 -0.203206 18.8531 0.065626 3.71987 8.29934 -6.05274 1.55776 -12.7089 -0.264963 -1.60447 -13.6655 -0.379208 5.85731 33.082 -29.4326 0 -6.588 0 
-0.333618 36.9409 17.3048 0.932232 -9.78699 9.78115 0.242366 7.10521 -3.34109 5.34577 41.7195 0 -8.13714 -39.1132 -7.92481 -2.11203 0 -9.92236 22.4934 -13.8807 -17.537 1.00332e-007 -47.7174 -20.1758 15.6308 20.0753 0 12.1474 0 -9.72243 -18.4857 22.0015 -0.696433 -1.83415e-006 -30.111 34.8866 -1.14916 -6.2395 -20.2795 0.517144 21.5351 -0.18987 3.25814 7.18159 -7.41528 1.57021 -14.5888 -0.212132 -2.84977 -16.2898 -0.800025 3.35377 23.1124 -27.5208 0 -9.96411 0 
-0.38661 36.4744 19.455 2.14703 -8.72625 12.1439 -0.858422 6.7806 -5.63467 5.94033 41.8163 0 -8.97228 -38.8934 -8.49486 -0.917446 0 -10.8376 23.8228 -18.5755 -15.0838 1.38876e-006 -51.5188 -19.4072 16.2677 17.687 0 13.0712 0 -11.1471 -19.3732 25.7348 -0.031262 1.11557e-006 -28.9665 34.77 -1.32263 -5.94754 -20.2649 0.90333 23.6934 -0.362974 3.29087 7.87092 -9.53011 1.58737 -16.8061 -0.14867 -4.93464 -18.1682 -1.54207 2.39077 15.9375 -24.7224 0 -15.6211 0 
-0.433093 36.0138 21.8342 3.45724 -8.72916 15.1664 -1.6299 7.32584 -8.67228 6.3442 42.0433 0 -9.61271 -38.7993 -8.96093 -0.361299 0 -11.6125 25.5959 -22.0044 -12.0573 4.26786e-007 -55.2426 -20.4265 16.3244 15.6113 0 13.6502 0 -12.6251 -20.3954 28.9695 0.855648 -1.83907e-007 -28.1067 34.9775 -1.42045 -5.73864 -20.2541 1.99736 26.3349 -0.886402 3.81232 9.91319 -12.6239 1.60399 -18.6689 -0.094189 -7.21559 -18.3225 -2.27925 2.58386 12.5668 -23.0588 0 -19.7753 0 
-0.540227 35.6535 24.4446 4.39301 -9.6565 18.0867 -1.73161 8.29398 -11.8681 6.48865 42.4187 0 -9.96187 -38.8563 -9.23654 -0.161905 0 -12.2435 27.2584 -23.1581 -8.70863 -9.27846e-007 -58.4566 -21.793 16.0816 13.7366 0 14.029 0 -13.5138 -21.3766 31.7756 1.56028 1.93681e-006 -27.3652 35.0843 -1.45591 -5.519 -20.245 4.04061 28.9452 -1.95799 4.92651 13.1193 -15.655 1.60794 -19.0799 -0.082003 -8.42614 -17.147 -2.50067 2.49528 12.0506 -23.7014 0 -21.523 0 
-0.736169 35.4075 27.2273 4.68163 -10.7194 19.8235 -1.32427 8.53123 -13.9785 6.38173 42.8746 0 -10.0398 -39.1066 -9.31405 -0.474544 0 -12.9878 28.5955 -21.6873 -6.1268 2.00597e-007 -61.2486 -22.8238 15.442 12.3283 0 14.0788 0 -13.6376 -22 34.4566 1.94779 -9.06875e-007 -26.8052 34.798 -1.40778 -5.08394 -20.2322 6.17015 30.2487 -3.11725 6.57869 18.0088 -17.4448 1.58954 -17.0636 -0.141196 -7.926 -15.6869 -2.15581 1.53431 13.255 -25.172 0 -20.6069 0 
-0.987927 35.2303 30.1231 4.55751 -11.6847 20.2579 -0.7129 7.97225 -14.595 6.08011 43.2722 0 -9.93842 -39.3076 -9.23008 -1.47206 0 -13.5919 29.6363 -18.8752 -5.37346 3.1325e-006 -63.068 -22.8853 13.7462 11.7143 0 13.8172 0 -13.2487 -22.168 36.8144 1.91683 1.02398e-007 -26.5262 34.1414 -1.20112 -4.16261 -20.2217 7.61424 29.8752 -3.80958 8.38949 24.8402 -17.7541 1.55027 -11.4176 -0.300777 -6.29195 -14.1218 -1.54096 0.270838 15.3619 -25.6034 0 -16.7765 0 
-1.24502 35.124 33.0087 3.94009 -12.7681 19.5623 0.390813 7.35243 -13.742 5.60994 43.5861 0 -9.69233 -39.5029 -8.98601 -2.73124 0 -13.8914 30.0706 -16.085 -6.40613 -6.82419e-007 -63.4583 -22.0307 13.1293 12.0713 0 13.4167 0 -12.3458 -21.8594 38.2378 1.89612 -5.79197e-007 -26.5711 32.6773 -1.03975 -3.12225 -20.2124 8.55275 28.0941 -4.05113 9.68942 33.0078 -16.3207 1.52083 -2.31184 -0.546399 -4.03839 -12.347 -0.864943 -0.202616 18.1445 -24.7349 0 -11.6935 0 
-1.48971 35.1476 35.7137 2.52396 -13.4856 17.4913 2.01358 6.72537 -11.6197 4.98756 43.7877 0 -9.30208 -39.6938 -8.59009 -3.57126 0 -13.5618 29.243 -13.3249 -8.07109 -4.24612e-006 -62.5598 -21.4054 12.5341 12.7257 0 13.2486 0 -10.308 -21.2035 38.2122 1.94638 -8.05757e-008 -26.7345 31.479 -1.11281 -2.57677 -20.1987 8.99271 24.5294 -3.75893 9.84358 41.8549 -12.5479 1.52767 5.89685 -0.764729 -1.22119 -11.0585 -0.234209 0.0939749 21.6925 -23.1432 0 -8.49858 0 
-1.69991 35.3327 38.1623 0.985349 -13.3436 14.6143 3.41614 6.05924 -8.61531 4.1924 43.9081 0 -8.72966 -39.8912 -8.0523 -3.8275 0 -12.3589 26.9959 -10.309 -9.73579 1.08303e-007 -60.3174 -21.7359 12.1247 13.4858 0 13.471 0 -7.8453 -21.0043 36.1621 2.78611 2.65263e-007 -26.964 32.2969 -1.24509 -2.48873 -20.1974 8.51056 18.8048 -2.76157 9.24173 50.6615 -7.60651 1.53781 8.82995 -0.843863 1.58197 -9.94846 0.273352 0.162046 24.8914 -21.0795 0 -8.00229 0 
-1.83748 35.6811 40.4456 0.272999 -12.7551 12.195 4.00646 5.66888 -5.71364 3.20241 43.9893 0 -7.94349 -40.0994 -7.35319 -3.87063 0 -10.0864 23.962 -7.41534 -11.8176 2.02709e-007 -56.1906 -22.6138 11.7533 14.0699 0 13.6433 0 -6.24733 -21.6574 31.8884 4.64341 9.85586e-007 -27.7898 35.9969 -1.25268 -2.6199 -20.2006 7.10522 11.7109 -1.44932 8.9308 57.8509 -4.28925 1.53188 7.26536 -0.801498 3.48303 -7.5557 0.45853 -0.301957 25.9709 -18.9268 0 -8.65017 0 
-1.89194 36.1378 42.7238 0.178075 -12.6621 9.96603 4.22708 5.97045 -2.85905 2.04736 44.035 0 -6.97604 -40.3209 -6.50752 -4.16621 0 -7.46746 21.1666 -4.31297 -14.0658 -5.62992e-007 -50.4631 -23.4612 11.1173 14.1202 0 13.098 0 -5.63582 -22.436 26.3163 7.11174 1.81752e-006 -30.0572 40.4098 -1.01642 -3.01949 -20.208 5.46054 5.37479 -0.513016 7.14431 61.5153 -1.10195 1.52305 3.86121 -0.710352 4.44919 -2.9866 0.232306 -0.889556 24.407 -16.5375 0 -9.22593 0 
-1.8933 36.5945 45.0386 -0.0412311 -13.1792 6.80658 4.59537 6.89808 0.591667 0.822834 44.0534 0 -5.93475 -40.5627 -5.5987 -5.06021 0 -5.27563 19.4353 -0.304295 -15.4134 6.18368e-007 -44.2641 -24.3909 10.2612 13.6341 0 11.7688 0 -5.18791 -22.7754 20.6096 9.0603 -7.97807e-007 -32.6725 41.0583 -0.486729 -4.14397 -20.217 4.36019 0.885872 -0.067568 1.83465 60.8569 5.00324 1.51958 0.189922 -0.612768 4.83053 2.87018 -0.242491 -1.45056 21.2483 -13.0984 0 -9.52208 0 
-1.87437 36.9587 47.3092 -0.41151 -13.6816 3.0011 4.85579 7.98797 4.27311 -0.38784 44.0569 0 -4.89851 -40.8123 -4.69903 -6.56583 0 -3.54821 19.2709 4.40344 -16.6137 -2.32071e-007 -38.6249 -25.7315 9.3788 12.9131 0 10.2256 0 -4.18654 -22.8094 15.1826 9.64442 -2.61744e-006 -34.8915 37.1051 0.177101 -5.80775 -20.2479 3.84656 -2.58568 0.173788 -3.49882 56.463 11.0978 1.52231 -3.44006 -0.516356 4.52176 8.58547 -0.676419 -1.79762 17.761 -8.94435 0 -9.62472 0 
-1.83326 37.1713 49.4687 -0.973376 -13.7352 -1.02633 5.07959 8.86077 7.89716 -1.52567 44.0351 0 -3.90338 -41.0334 -3.86534 -8.40666 0 -2.33239 20.4212 9.53946 -18.8538 -1.23007e-006 -34.3613 -26.4119 8.38272 12.2188 0 8.69896 0 -2.52027 -22.9259 9.89388 9.26633 -9.7193e-007 -37.6642 32.3605 0.705954 -7.31309 -20.31 3.92035 -5.76838 0.394669 -6.03576 49.3553 14.9195 1.52958 -6.553 -0.433138 3.77165 13.1503 -0.859236 -1.86592 15.3904 -4.8668 0 -10.0603 0 
-1.75688 37.1811 51.5297 -1.79062 -13.35 -5.20642 5.48639 9.55601 11.4275 -2.53824 43.9562 0 -2.99599 -41.181 -3.15338 -10.2068 0 -1.58723 22.1131 14.9013 -21.1558 -2.11461e-007 -32.1903 -25.5728 7.18041 11.6344 0 7.05247 0 -0.450939 -23.1956 4.45002 7.65299 -1.04004e-007 -40.8665 30.6694 0.845594 -8.51624 -20.3739 4.58632 -8.51102 0.680234 -5.94162 40.1451 17.4453 1.53788 -8.85108 -0.37106 2.8914 16.373 -0.815657 -2.07434 14.6353 -1.022 0 -11.3758 0 
-1.65406 36.9508 53.5764 -2.5648 -12.6053 -8.91509 5.80973 10.0992 14.5553 -3.38878 43.8607 0 -2.22325 -41.2786 -2.58136 -11.591 0 -0.976805 23.5565 19.9055 -21.5534 -1.04314e-006 -31.4296 -25.1121 5.93923 11.2166 0 5.21467 0 1.11624 -23.4689 -1.39325 5.02021 1.49821e-006 -43.8692 33.9025 0.612611 -9.57875 -20.4377 5.40478 -10.7333 1.00948 -3.83386 29.6076 19.0488 1.54585 -10.5781 -0.32389 1.96799 18.8729 -0.636807 -2.51586 14.7133 1.9847 0 -13.514 0 
-1.52538 36.5039 55.6877 -3.35018 -11.7227 -11.9677 6.21891 10.4576 17.1484 -4.06063 43.8504 0 -1.59848 -41.3846 -2.11906 -12.7216 0 -0.38168 24.9682 24.6296 -21.748 -2.43354e-007 -31.6689 -24.9423 4.83281 11.0244 0 3.30334 0 2.27085 -23.7139 -7.02946 1.83494 1.52395e-006 -46.3774 39.1098 0.0490091 -10.5397 -20.4955 6.35367 -12.3919 1.36884 -0.834855 18.9427 19.6085 1.55372 -12.0325 -0.28377 1.08443 21.1825 -0.391933 -3.06977 15.2134 4.15726 0 -16.1091 0 
-1.38922 35.9606 57.8743 -4.30077 -10.7866 -14.5873 6.87484 10.6448 19.3711 -4.73795 43.9016 0 -0.822805 -41.4987 -1.68563 -13.6885 0 0.218585 26.3359 28.8533 -22.6031 1.51809e-007 -32.0734 -24.3425 3.609 8.45015 0 1.71165 0 3.40803 -24.4398 -11.58 0.279987 2.51097e-006 -49.0803 38.8631 5.21653 -14.0249 -20.4686 7.85062 -13.7865 1.88193 1.56235 10.1742 19.362 1.56138 -13.2857 -0.248843 0.26329 23.1747 -0.10362 -3.79757 16.5834 6.2293 0 -18.7145 0 
